<svg xmlns="http://www.w3.org/2000/svg" viewBox="0 0 20.61 19.35"><defs><style>.cls-1{fill:#111;}.cls-2{fill:#fff;}</style></defs><title>ico_line</title><g id="Layer_2" data-name="Layer 2"><g id="Layer_1-2" data-name="Layer 1"><g id="icons8-line"><path class="cls-1" d="M10.31.05C4.73.05.05,3.69.05,8.35c0,4.16,3.71,7.53,8.55,8.18h0l.36.11s0,0,0,0a2.57,2.57,0,0,1,0,.48s-.11.66-.13.78h0a1.1,1.1,0,0,0,.15.95,1,1,0,0,0,.73.43,1.79,1.79,0,0,0,.83-.17A24.05,24.05,0,0,0,14.07,17a24.45,24.45,0,0,0,4.26-3.53,7.42,7.42,0,0,0,2.23-5.15C20.57,3.69,15.89.05,10.31.05Zm0,1.28c5,0,9,3.23,9,7a6,6,0,0,1-1.89,4.27h0a23,23,0,0,1-4,3.33,26.64,26.64,0,0,1-3.2,1.93l.1-.56h0a2.06,2.06,0,0,0-.07-1.18h0a1.17,1.17,0,0,0-.67-.64,2.4,2.4,0,0,0-.64-.21h0c-4.38-.57-7.49-3.52-7.49-6.92,0-3.79,4-7,9-7ZM9.66,5.82A.63.63,0,0,0,9,6.46H9v3.85a.64.64,0,0,0,.64.64.64.64,0,0,0,.64-.64V8.46l1.4,2.22a.64.64,0,0,0,1.16-.37V6.46a.64.64,0,1,0-1.28,0V8.38l-1.4-2.29a.62.62,0,0,0-.53-.27Zm-5.76,0a.63.63,0,0,0-.64.64V10.3A.64.64,0,0,0,3.9,11H5.82a.65.65,0,0,0,0-1.29H4.54V6.46a.64.64,0,0,0-.64-.64Zm3.84,0a.64.64,0,0,0-.64.64V10.3a.64.64,0,1,0,1.28,0V6.46a.64.64,0,0,0-.64-.64Zm6.41,0a.64.64,0,0,0-.64.64h0V10.3a.65.65,0,0,0,.64.65h1.93a.65.65,0,0,0,0-1.29H14.8V9h1.28a.64.64,0,0,0,.64-.64.64.64,0,0,0-.64-.64H14.8V7.1h1.28a.64.64,0,1,0,0-1.28H14.15Z"/><path class="cls-2" d="M9.81,19.35H9.72A1.12,1.12,0,0,1,9,18.9a1.16,1.16,0,0,1-.16-1c0-.08.07-.41.11-.61l0-.17c0-.14,0-.29,0-.44a2.35,2.35,0,0,0-.35-.11C3.61,15.92,0,12.45,0,8.35,0,3.75,4.62,0,10.31,0a11.65,11.65,0,0,1,7.25,2.41,7.6,7.6,0,0,1,3.05,5.94,7.42,7.42,0,0,1-2.24,5.18,24.13,24.13,0,0,1-4.27,3.54,25,25,0,0,1-3.52,2.1A1.74,1.74,0,0,1,9.81,19.35ZM10.31.1C4.68.1.1,3.8.1,8.35c0,4.05,3.58,7.47,8.51,8.13A2.29,2.29,0,0,1,9,16.6l0,0H9v0a2.57,2.57,0,0,1,0,.48l0,.18c0,.2-.09.52-.11.61a1.1,1.1,0,0,0,.14.92,1,1,0,0,0,.7.4,1.72,1.72,0,0,0,.8-.17A23.38,23.38,0,0,0,14,17a24.45,24.45,0,0,0,4.26-3.53,7.35,7.35,0,0,0,2.21-5.11,7.51,7.51,0,0,0-3-5.86A11.52,11.52,0,0,0,10.31.1ZM10.08,18l.12-.69a1.93,1.93,0,0,0-.07-1.14,1.15,1.15,0,0,0-.64-.62,2.72,2.72,0,0,0-.63-.2h0c-4.37-.57-7.54-3.51-7.54-7,0-3.88,4-7,9-7.07h.05c5,0,9,3.17,9,7.07a6.13,6.13,0,0,1-1.9,4.31h0a24.4,24.4,0,0,1-4,3.34,28.14,28.14,0,0,1-3.21,1.93ZM8.85,15.23h0a3.3,3.3,0,0,1,.65.21,1.28,1.28,0,0,1,.7.67,2.17,2.17,0,0,1,.07,1.21v0l-.08.46a25.84,25.84,0,0,0,3.1-1.88,23.73,23.73,0,0,0,4-3.32h0a6,6,0,0,0,1.87-4.24c0-3.83-4-6.95-8.87-7h0c-4.92,0-8.93,3.13-8.93,7,0,3.42,3.13,6.31,7.45,6.88ZM12.23,11a.67.67,0,0,1-.56-.29L10.36,8.63v1.68a.69.69,0,0,1-.69.69h0a.69.69,0,0,1-.49-.21.67.67,0,0,1-.2-.48V6.46a.68.68,0,0,1,.68-.69h.05a.68.68,0,0,1,.52.29l1.31,2.15V6.46a.69.69,0,1,1,1.38,0v3.85a.7.7,0,0,1-.29.56A.66.66,0,0,1,12.23,11Zm-2-2.71,1.49,2.36a.6.6,0,0,0,.38.24.56.56,0,0,0,.44-.1.58.58,0,0,0,.25-.48V6.46a.59.59,0,0,0-1.18,0v2.1L10.15,6.12a.58.58,0,0,0-.48-.25H9.62a.58.58,0,0,0-.54.59v3.85a.58.58,0,0,0,.17.41.6.6,0,0,0,.42.18h0a.6.6,0,0,0,.59-.59ZM16.08,11H14.15a.69.69,0,0,1-.69-.69V6.46a.69.69,0,0,1,.69-.69h1.93a.69.69,0,1,1,0,1.38H14.85v.54h1.23a.69.69,0,1,1,0,1.38H14.85v.54h1.23a.7.7,0,0,1,0,1.39ZM14.15,5.87a.59.59,0,0,0-.59.59v3.85a.6.6,0,0,0,.59.59h1.93a.6.6,0,0,0,0-1.19H14.75V9h1.33a.59.59,0,0,0,.59-.59.6.6,0,0,0-.59-.59H14.75V7.05h1.33a.59.59,0,0,0,0-1.18ZM5.82,11H3.9a.69.69,0,0,1-.69-.69V6.46a.69.69,0,0,1,.69-.69h0a.69.69,0,0,1,.66.69V9.61H5.82a.69.69,0,0,1,.49.21.69.69,0,0,1,0,1A.71.71,0,0,1,5.82,11Zm-2-5.13a.59.59,0,0,0-.55.59v3.85a.59.59,0,0,0,.59.59H5.82a.6.6,0,0,0,.42-.18.58.58,0,0,0,.17-.41.59.59,0,0,0-.17-.42.6.6,0,0,0-.42-.18H4.49V6.46a.6.6,0,0,0-.59-.59ZM7.74,11a.71.71,0,0,1-.49-.21.67.67,0,0,1-.2-.48V6.46a.69.69,0,0,1,.69-.69h0a.69.69,0,0,1,.65.69v3.85a.69.69,0,0,1-.69.69Zm0-5.13a.6.6,0,0,0-.56.59v3.85a.55.55,0,0,0,.18.41.58.58,0,0,0,.41.18h0a.59.59,0,0,0,.59-.59V6.46a.59.59,0,0,0-.59-.59Z"/></g></g></g></svg>