<svg xmlns="http://www.w3.org/2000/svg" width="21.814" height="15.332" viewBox="0 0 21.814 15.332">
  <g id="noun_Mail_2073672" transform="translate(0.25 0.25)">
    <g id="グループ化_39" data-name="グループ化 39" transform="translate(0 0)">
      <path id="パス_76" data-name="パス 76" d="M26.314,19.19a.5.5,0,0,0-.026-.16c0-.007-.007-.012-.01-.019a.5.5,0,0,0-.027-.051.507.507,0,0,0-.068-.1.5.5,0,0,0-.044-.043.718.718,0,0,0-.152-.094.5.5,0,0,0-.179-.036H5.507a.5.5,0,0,0-.179.036.471.471,0,0,0-.051.026.491.491,0,0,0-.1.068.474.474,0,0,0-.044.043.493.493,0,0,0-.068.1.467.467,0,0,0-.027.052c0,.007-.008.012-.01.019A.5.5,0,0,0,5,19.19V33.011a.506.506,0,0,0,.507.507h20.3a.507.507,0,0,0,.507-.507V19.19ZM6.013,32.5V20.217l9.336,7.134a.507.507,0,0,0,.615,0L25.3,20.217V32.505H6.013Zm9.644-6.194L7,19.7H24.31Z" transform="translate(-5 -18.686)" fill="#fff" stroke="#fff" stroke-width="0.5"/>
    </g>
  </g>
</svg>
