<svg xmlns="http://www.w3.org/2000/svg" viewBox="0 0 17.68 17.68"><defs><style>.cls-1{fill:#111;}</style></defs><title>ico_tel</title><g id="Layer_2" data-name="Layer 2"><g id="Layer_1-2" data-name="Layer 1"><g id="noun_call_1956589" data-name="noun call 1956589"><g id="パス_77" data-name="パス 77"><path class="cls-1" d="M12.13,10.84l-1.29,2a.4.4,0,0,1-.55.14A16.37,16.37,0,0,1,4.67,7.38a.39.39,0,0,1,.13-.55l2-1.29L4.65,1.18,1.12,2.59a17.44,17.44,0,0,0,14,14L16.5,13ZM7.71,10a15.16,15.16,0,0,0,2.66,2.13l1.27-2a.41.41,0,0,1,.53-.15l5,2.52a.4.4,0,0,1,.2.51l-1.68,4.2a.4.4,0,0,1-.45.25,18.25,18.25,0,0,1-15-15A.39.39,0,0,1,.51,2L4.71.28a.4.4,0,0,1,.51.2l2.52,5A.4.4,0,0,1,7.59,6l-2,1.27A15.54,15.54,0,0,0,7.72,10Z"/><path class="cls-1" d="M15.34,17.68h-.11A18.5,18.5,0,0,1,0,2.45a.68.68,0,0,1,.4-.73L4.61.05a.66.66,0,0,1,.84.32L8,5.4a.64.64,0,0,1-.23.85L5.93,7.39a15.07,15.07,0,0,0,2,2.4h0a15.56,15.56,0,0,0,2.4,2L11.43,10a.64.64,0,0,1,.85-.23l5,2.51a.66.66,0,0,1,.32.84L16,17.27A.68.68,0,0,1,15.34,17.68ZM4.86.5H4.8L.6,2.19a.16.16,0,0,0-.1.17A18,18,0,0,0,15.32,17.18a.17.17,0,0,0,.17-.1l1.68-4.2a.15.15,0,0,0-.08-.2l-5-2.52a.15.15,0,0,0-.2.06l-1.41,2.22-.21-.13a16.05,16.05,0,0,1-2.7-2.17h0A14.73,14.73,0,0,1,5.38,7.44l-.14-.21,2.22-1.4a.17.17,0,0,0,.06-.21L5,.59A.15.15,0,0,0,4.86.5ZM15.24,16.84l-.2,0A17.79,17.79,0,0,1,.87,2.63l0-.2L4.77.86,7.16,5.63,4.93,7a.17.17,0,0,0,0,.22,16.29,16.29,0,0,0,5.54,5.53.16.16,0,0,0,.21,0L12,10.51l4.78,2.39ZM1.4,2.75A17.28,17.28,0,0,0,14.93,16.27l1.25-3.13-4-2L11.05,13a.66.66,0,0,1-.89.21A16.69,16.69,0,0,1,4.45,7.51a.65.65,0,0,1,.22-.89L6.51,5.45l-2-4Z"/></g></g></g></g></svg>